<?xml version="1.0" encoding="UTF-8" standalone="no"?>
<svg
   xmlns:dc="http://purl.org/dc/elements/1.1/"
   xmlns:cc="http://creativecommons.org/ns#"
   xmlns:rdf="http://www.w3.org/1999/02/22-rdf-syntax-ns#"
   xmlns:svg="http://www.w3.org/2000/svg"
   xmlns="http://www.w3.org/2000/svg"
   xmlns:sodipodi="http://sodipodi.sourceforge.net/DTD/sodipodi-0.dtd"
   xmlns:inkscape="http://www.inkscape.org/namespaces/inkscape"
   version="1.1"
   id="svg2"
   xml:space="preserve"
   width="1000"
   height="333.33334"
   viewBox="0 0 1000 333.33334"
   sodipodi:docname="arvis loggo.ai"><metadata
     id="metadata8"><rdf:RDF><cc:Work
         rdf:about=""><dc:format>image/svg+xml</dc:format><dc:type
           rdf:resource="http://purl.org/dc/dcmitype/StillImage" /></cc:Work></rdf:RDF></metadata><defs
     id="defs6"><clipPath
       clipPathUnits="userSpaceOnUse"
       id="clipPath18"><path
         d="M 0,250 H 750 V 0 H 0 Z"
         id="path16" /></clipPath></defs><sodipodi:namedview
     pagecolor="#ffffff"
     bordercolor="#666666"
     borderopacity="1"
     objecttolerance="10"
     gridtolerance="10"
     guidetolerance="10"
     inkscape:pageopacity="0"
     inkscape:pageshadow="2"
     inkscape:window-width="640"
     inkscape:window-height="480"
     id="namedview4" /><g
     id="g10"
     inkscape:groupmode="layer"
     inkscape:label="arvis loggo"
     transform="matrix(1.3333333,0,0,-1.3333333,0,333.33333)"><g
       id="g12"><g
         id="g14"
         clip-path="url(#clipPath18)"><g
           id="g20"
           transform="translate(538.5752,85.1622)"><path
             d="m 0,0 -23.108,60.332 c -2.789,7.528 -5.926,13.138 -9.411,16.834 v 0.209 h 21.749 v -0.209 c -1.116,-1.673 -1.691,-4.009 -1.725,-7.005 -0.036,-2.998 0.609,-6.449 1.934,-10.352 L 5.96,15.998 20.703,54.686 c 3.624,9.758 3.694,17.252 0.209,22.48 v 0.209 H 34.819 V 77.166 C 30.775,72.704 27.464,66.779 24.885,59.391 L 2.091,0 Z"
             style="fill:#000000;fill-opacity:1;fill-rule:nonzero;stroke:none"
             id="path22" /></g><g
           id="g24"
           transform="translate(614.8254,85.3714)"><path
             d="m 0,0 c 1.741,3.206 2.875,6.029 3.398,8.47 0.523,2.439 0.784,5.855 0.784,10.246 v 38.688 c 0,4.392 -0.261,7.806 -0.784,10.247 C 2.875,70.09 1.741,72.913 0,76.12 v 0.21 H 20.389 V 76.12 C 18.646,72.913 17.514,70.09 16.991,67.651 16.469,65.21 16.207,61.796 16.207,57.404 V 18.716 c 0,-4.391 0.262,-7.807 0.784,-10.246 C 17.514,6.029 18.646,3.206 20.389,0 V -0.209 H 0 Z"
             style="fill:#000000;fill-opacity:1;fill-rule:nonzero;stroke:none"
             id="path26" /></g><g
           id="g28"
           transform="translate(731.5462,142.8801)"><path
             d="m 0,0 -0.941,-0.314 c -3.486,7.388 -6.971,12.6 -10.456,15.632 -3.486,3.032 -7.215,4.548 -11.188,4.548 -3.555,0 -6.344,-1.063 -8.365,-3.189 -2.023,-2.127 -3.032,-4.966 -3.032,-8.521 0,-1.882 0.366,-3.66 1.098,-5.333 0.732,-1.673 1.55,-3.068 2.457,-4.182 0.905,-1.116 2.317,-2.301 4.235,-3.555 1.916,-1.255 3.484,-2.196 4.705,-2.824 1.219,-0.627 3.084,-1.534 5.594,-2.718 2.648,-1.325 4.739,-2.389 6.274,-3.189 1.532,-0.803 3.362,-1.987 5.489,-3.555 2.125,-1.569 3.764,-3.121 4.914,-4.653 1.151,-1.534 2.16,-3.487 3.033,-5.856 0.87,-2.37 1.307,-4.95 1.307,-7.737 0,-7.39 -2.58,-12.95 -7.738,-16.678 -5.159,-3.73 -11.711,-5.594 -19.657,-5.594 -7.042,0 -14.22,1.359 -21.54,4.078 l -2.091,19.344 0.836,0.314 c 3.974,-7.46 8.052,-12.932 12.234,-16.416 4.182,-3.487 8.679,-5.229 13.488,-5.229 4.531,0 8.016,1.376 10.457,4.13 2.439,2.754 3.659,6.152 3.659,10.195 0,4.531 -1.411,8.225 -4.235,11.084 -2.823,2.857 -6.814,5.541 -11.972,8.051 -2.161,1.046 -3.73,1.812 -4.705,2.3 -0.977,0.487 -2.405,1.289 -4.287,2.405 -1.882,1.114 -3.294,2.055 -4.235,2.823 -0.941,0.767 -2.075,1.794 -3.398,3.085 -1.325,1.289 -2.284,2.544 -2.876,3.764 -0.592,1.219 -1.133,2.683 -1.62,4.392 -0.489,1.707 -0.732,3.503 -0.732,5.384 0,6.761 2.3,11.78 6.901,15.057 4.601,3.276 10.351,4.915 17.253,4.915 5.785,0 11.466,-1.012 17.043,-3.033 z"
             style="fill:#000000;fill-opacity:1;fill-rule:nonzero;stroke:none"
             id="path30" /></g><g
           id="g32"
           transform="translate(338.7994,162.5374)"><path
             d="m 0,0 23.108,-60.332 c 2.789,-7.528 5.926,-13.138 9.41,-16.834 v -0.209 H 10.77 v 0.209 c 1.116,1.673 1.691,4.009 1.725,7.005 0.036,2.998 -0.609,6.449 -1.934,10.352 L -5.96,-15.998 -20.703,-54.686 c -3.624,-9.758 -3.694,-17.252 -0.209,-22.48 v -0.209 h -13.907 v 0.209 c 4.044,4.462 7.355,10.387 9.934,17.775 L -2.091,0 Z"
             style="fill:#000000;fill-opacity:1;fill-rule:nonzero;stroke:none"
             id="path34" /></g><g
           id="g36"
           transform="translate(468.5964,90.5995)"><path
             d="M 0,0 C -1.568,1.742 -3.434,4.774 -5.594,9.097 L -18.037,33.46 c 5.088,1.602 8.888,4.094 11.398,7.476 2.509,3.38 3.764,7.335 3.764,11.867 0,12.198 -8.819,18.298 -26.454,18.298 h -26.663 v -0.209 c 1.673,-3.207 2.787,-6.064 3.345,-8.574 0.558,-2.509 0.837,-5.891 0.837,-10.142 V 13.488 c 0,-4.252 -0.279,-7.633 -0.837,-10.142 -0.558,-2.51 -1.672,-5.369 -3.345,-8.574 v -0.209 h 20.389 v 0.209 c -1.743,3.205 -2.875,6.029 -3.398,8.469 -0.523,2.439 -0.784,5.856 -0.784,10.247 v 15.886 2.099 2.091 1.793 33.549 c 1.323,0.068 2.996,0.104 5.018,0.104 h 3.137 c 6.065,0 10.334,-1.395 12.809,-4.182 2.474,-2.789 3.712,-6.762 3.712,-11.92 0,-12.897 -5.508,-19.344 -16.521,-19.344 h -0.093 l 2.105,-4.19 17.75,-34.811 H 6.535 v 0.732 C 3.746,-3.312 1.568,-1.743 0,0"
             style="fill:#000000;fill-opacity:1;fill-rule:nonzero;stroke:none"
             id="path38" /></g><g
           id="g40"
           transform="translate(56.6326,108.3717)"><path
             d="m 0,0 -36.899,-83.128 h 15.395 l 29.954,67.87 z"
             style="fill:#000000;fill-opacity:1;fill-rule:nonzero;stroke:none"
             id="path42" /></g><g
           id="g44"
           transform="translate(115.8475,223.024)"><path
             d="m 0,0 h -8.322 l -12.019,-27.076 -12.077,-27.208 8.299,-15.252 11.223,25.429 72.811,-153.673 h 34.259 z"
             style="fill:#000000;fill-opacity:1;fill-rule:nonzero;stroke:none"
             id="path46" /></g><g
           id="g48"
           transform="translate(166.5843,141.326)"><path
             d="M 0,0 37.034,83.43 H 21.638 L -7.715,16.921 Z"
             style="fill:#000000;fill-opacity:1;fill-rule:nonzero;stroke:none"
             id="path50" /></g><g
           id="g52"
           transform="translate(131.1337,95.4038)"><path
             d="m 0,0 -10.733,-24.321 -72.812,153.673 h -34.259 l 94.174,-197.78 h 8.323 l 12.018,27.076 11.23,25.3 z"
             style="fill:#000000;fill-opacity:1;fill-rule:nonzero;stroke:none"
             id="path54" /></g></g></g></g></svg>
